<?xml version="1.0" encoding="UTF-8"?>
<!DOCTYPE svg PUBLIC "-//W3C//DTD SVG 1.1//EN" "http://www.w3.org/Graphics/SVG/1.1/DTD/svg11.dtd">
<svg xmlns="http://www.w3.org/2000/svg" version="1.1" width="180px" height="180px" style="shape-rendering:geometricPrecision; text-rendering:geometricPrecision; image-rendering:optimizeQuality; fill-rule:evenodd; clip-rule:evenodd" xmlns:xlink="http://www.w3.org/1999/xlink">
<g><path style="opacity:0.939" fill="#fefefe" d="M 89.5,9.5 C 91.6237,10.0312 93.1237,11.3645 94,13.5C 111.061,43.796 128.228,73.9627 145.5,104C 121.954,106.284 105.454,118.784 96,141.5C 93.6329,148.705 91.7996,156.038 90.5,163.5C 88.5267,143.363 79.8601,126.863 64.5,114C 55.3112,107.988 45.6445,104.655 35.5,104C 53.7022,72.6274 71.7022,41.1274 89.5,9.5 Z M 91.5,74.5 C 90.8333,74.5 90.1667,74.5 89.5,74.5C 90.5961,70.7113 91.2627,70.7113 91.5,74.5 Z M 91.5,74.5 C 93.2503,75.6594 94.2503,77.326 94.5,79.5C 92.7497,78.3406 91.7497,76.674 91.5,74.5 Z M 87.5,78.5 C 87.2503,80.674 86.2503,82.3406 84.5,83.5C 84.7497,81.326 85.7497,79.6594 87.5,78.5 Z M 95.5,81.5 C 97.2503,82.6594 98.2503,84.326 98.5,86.5C 96.7497,85.3406 95.7497,83.674 95.5,81.5 Z M 83.5,85.5 C 80.6135,91.6044 77.4469,97.6044 74,103.5C 73.4867,102.473 72.9867,101.473 72.5,100.5C 73.3764,100.631 74.0431,100.298 74.5,99.5C 77.0256,94.4287 80.0256,89.762 83.5,85.5 Z M 99.5,88.5 C 102.389,91.2558 104.556,94.5891 106,98.5C 106.816,99.8228 107.983,100.489 109.5,100.5C 108.878,101.627 108.045,102.627 107,103.5C 104.473,98.4469 101.973,93.4469 99.5,88.5 Z M 90.5,113.5 C 92.5122,116.352 94.1789,119.519 95.5,123C 94.0487,125.953 92.3821,128.787 90.5,131.5C 88.7005,128.733 87.0338,125.899 85.5,123C 87.2994,119.901 88.966,116.735 90.5,113.5 Z"/></g>
<g><path style="opacity:0.906" fill="#fefefe" d="M 36.5,108.5 C 52.9563,108.645 66.123,115.312 76,128.5C 85.2903,140.664 89.1236,154.331 87.5,169.5C 81.7714,161.248 76.6047,152.581 72,143.5C 66.0101,147.378 59.5101,148.378 52.5,146.5C 57.1422,140.883 60.4756,134.55 62.5,127.5C 62.1924,126.692 61.6924,126.025 61,125.5C 60.5348,126.931 59.7014,128.097 58.5,129C 47.4849,129.832 36.4849,129.666 25.5,128.5C 32.8481,123.573 36.5148,116.906 36.5,108.5 Z"/></g>
<g><path style="opacity:0.906" fill="#fefefe" d="M 137.5,108.5 C 139.833,108.5 142.167,108.5 144.5,108.5C 145.013,116.856 148.68,123.523 155.5,128.5C 144.515,129.666 133.515,129.832 122.5,129C 121.789,127.745 120.956,126.579 120,125.5C 119.5,126 119,126.5 118.5,127C 120.71,134.052 124.044,140.552 128.5,146.5C 121.49,148.378 114.99,147.378 109,143.5C 104.652,151.532 100.319,159.532 96,167.5C 95.3109,168.357 94.4776,169.023 93.5,169.5C 92.0454,145.576 101.379,127.076 121.5,114C 126.802,111.845 132.135,110.011 137.5,108.5 Z"/></g>
</svg>
