<?xml version="1.0" standalone="no"?>
<!DOCTYPE svg PUBLIC "-//W3C//DTD SVG 20010904//EN"
 "http://www.w3.org/TR/2001/REC-SVG-20010904/DTD/svg10.dtd">
<svg version="1.0" xmlns="http://www.w3.org/2000/svg"
 width="180.000000pt" height="180.000000pt" viewBox="0 0 180.000000 180.000000"
 preserveAspectRatio="xMidYMid meet">

<g transform="translate(0.000000,180.000000) scale(0.100000,-0.100000)"
fill="#000000" stroke="none">
<path d="M753 1431 l-153 -268 0 -95 c0 -128 17 -174 84 -232 l53 -45 76 128
c42 70 79 135 83 144 9 25 17 21 38 -15 11 -18 48 -83 84 -144 l66 -112 47 37
c57 44 76 81 91 174 18 122 10 144 -157 435 -82 144 -152 261 -155 261 -3 0
-74 -120 -157 -268z"/>
<path d="M527 1038 c-52 -90 -53 -93 -33 -102 12 -5 44 -19 72 -31 l51 -22
-15 41 c-8 22 -15 78 -16 123 -1 46 -2 83 -3 83 0 0 -26 -42 -56 -92z"/>
<path d="M1238 1042 c-3 -48 -13 -104 -21 -124 -9 -21 -14 -38 -12 -38 3 0 19
9 37 20 18 11 40 20 48 19 8 0 -14 -15 -50 -33 -36 -19 -87 -55 -114 -80 -28
-25 -51 -46 -52 -46 -1 0 -37 63 -80 140 -42 77 -80 140 -83 140 -3 0 -41 -63
-84 -140 l-78 -141 -52 47 c-47 42 -194 124 -222 124 -10 0 -105 -156 -105
-172 0 -3 28 -8 62 -11 101 -11 210 -70 295 -161 99 -105 173 -261 173 -363 0
-18 5 -33 10 -33 6 0 10 12 10 26 0 87 82 270 162 358 89 100 194 157 320 174
l56 7 -49 85 c-44 77 -52 85 -77 82 -26 -2 -26 -2 -5 10 21 13 21 14 -31 105
l-53 92 -5 -87z m-296 -427 l28 -45 -28 -50 c-15 -27 -29 -50 -32 -50 -3 0
-17 22 -31 49 l-26 49 26 46 c14 25 28 46 31 46 3 0 17 -20 32 -45z"/>
<path d="M380 683 c-1 -31 -36 -97 -73 -137 -21 -21 -37 -40 -37 -41 0 -2 71
-2 157 0 148 3 158 5 175 25 16 20 19 20 24 5 10 -24 -10 -81 -51 -149 -19
-32 -35 -60 -35 -63 0 -9 127 11 154 25 36 17 29 25 117 -132 35 -64 68 -116
73 -116 11 0 -1 119 -20 194 -47 185 -199 349 -363 391 -77 21 -121 20 -121
-2z"/>
<path d="M1326 689 c-158 -37 -329 -225 -371 -408 -16 -69 -27 -181 -17 -181
4 0 37 53 75 118 37 64 71 123 75 130 7 10 15 10 43 -2 32 -13 149 -32 149
-24 0 2 -20 43 -45 91 -25 48 -45 96 -45 106 0 29 13 33 30 10 16 -20 26 -21
173 -23 86 -1 157 1 157 4 0 3 -12 16 -27 30 -35 34 -69 89 -78 128 -6 29 -10
32 -43 31 -20 -1 -54 -5 -76 -10z"/>
</g>
</svg>
